{
	"asset":{
		"generator":"Khronos glTF Blender I/O v4.2.70",
		"version":"2.0"
	},
	"extensionsUsed":[
		"KHR_materials_specular"
	],
	"scene":0,
	"scenes":[
		{
			"name":"Scene",
			"nodes":[
				0
			]
		}
	],
	"nodes":[
		{
			"mesh":0,
			"name":"texture_v128_768.001",
			"rotation":[
				0.70710688829422,
				0,
				0,
				0.7071066498756409
			]
		}
	],
	"materials":[
		{
			"doubleSided":true,
			"extensions":{
				"KHR_materials_specular":{
					"specularColorFactor":[
						2.0,
						2.0,
						2.0
					]
				}
			},
			"name":"Material.001",
			"normalTexture":{
				"index":0
			},
			"pbrMetallicRoughness":{
				"baseColorTexture":{
					"index":1
				},
				"metallicRoughnessTexture":{
					"index":2
				}
			}
		}
	],
	"meshes":[
		{
			"name":"texture_v128_768",
			"primitives":[
				{
					"attributes":{
						"POSITION":0,
						"NORMAL":1,
						"TEXCOORD_0":2
					},
					"indices":3,
					"material":0
				}
			]
		}
	],
	"textures":[
		{
			"sampler":0,
			"source":0
		},
		{
			"sampler":0,
			"source":1
		},
		{
			"sampler":0,
			"source":2
		}
	],
	"images":[
		{
			"mimeType":"image/png",
			"name":"texture_v128_768_normal",
			"uri":"texture_v128_768_normal.png"
		},
		{
			"mimeType":"image/png",
			"name":"texture_v128_768",
			"uri":"texture_v128_768.png"
		},
		{
			"mimeType":"image/png",
			"name":"texture_v128_768_metallic-texture_v128_768_roughness",
			"uri":"texture_v128_768_metallic-texture_v128_768_roughness.png"
		}
	],
	"accessors":[
		{
			"bufferView":0,
			"componentType":5126,
			"count":318655,
			"max":[
				0.3105120062828064,
				0.2664409875869751,
				0.5096650123596191
			],
			"min":[
				-0.3105120062828064,
				-0.2734900116920471,
				-0.5021679997444153
			],
			"type":"VEC3"
		},
		{
			"bufferView":1,
			"componentType":5126,
			"count":318655,
			"type":"VEC3"
		},
		{
			"bufferView":2,
			"componentType":5126,
			"count":318655,
			"type":"VEC2"
		},
		{
			"bufferView":3,
			"componentType":5125,
			"count":1500000,
			"type":"SCALAR"
		}
	],
	"bufferViews":[
		{
			"buffer":0,
			"byteLength":3823860,
			"byteOffset":0,
			"target":34962
		},
		{
			"buffer":0,
			"byteLength":3823860,
			"byteOffset":3823860,
			"target":34962
		},
		{
			"buffer":0,
			"byteLength":2549240,
			"byteOffset":7647720,
			"target":34962
		},
		{
			"buffer":0,
			"byteLength":6000000,
			"byteOffset":10196960,
			"target":34963
		}
	],
	"samplers":[
		{
			"magFilter":9729,
			"minFilter":9987
		}
	],
	"buffers":[
		{
			"byteLength":16196960,
			"uri":"scene.bin"
		}
	]
}
