{
	"asset":{
		"generator":"Khronos glTF Blender I/O v4.2.70",
		"version":"2.0"
	},
	"extensionsUsed":[
		"KHR_materials_emissive_strength",
		"KHR_materials_specular"
	],
	"scene":0,
	"scenes":[
		{
			"name":"Scene",
			"nodes":[
				0,
				1,
				2,
				7,
				8,
				9,
				10,
				11,
				12
			]
		}
	],
	"nodes":[
		{
			"name":"Sketchfab_model",
			"rotation":[
				-0.687663197517395,
				-0.16468016803264618,
				-0.16468024253845215,
				0.6876628398895264
			],
			"translation":[
				-0.8573488593101501,
				0.005363104864954948,
				1.128266453742981
			]
		},
		{
			"mesh":0,
			"name":"Object_2",
			"rotation":[
				-0.7071068286895752,
				0,
				0,
				0.7071068286895752
			]
		},
		{
			"mesh":1,
			"name":"Object_3",
			"rotation":[
				-0.7071068286895752,
				0,
				0,
				0.7071068286895752
			],
			"translation":[
				-0.00829199980944395,
				0,
				-0.05819400027394295
			]
		},
		{
			"mesh":2,
			"name":"default-retopo 3_Default Material1_0",
			"translation":[
				0.022047877311706543,
				0.21649526059627533,
				0.06871449947357178
			]
		},
		{
			"children":[
				3
			],
			"name":"default-retopo 3",
			"scale":[
				169.30511474609375,
				169.3050994873047,
				169.3051300048828
			],
			"translation":[
				-7.935796747915447e-05,
				-38.53221893310547,
				-2.4357343136216514e-05
			]
		},
		{
			"children":[
				4
			],
			"name":"RootNode",
			"translation":[
				-7.62939453125e-05,
				0,
				-3.0517578125e-05
			]
		},
		{
			"children":[
				5
			],
			"name":"c1fb4d79ca47478a9f03a6dfb7de0d99.fbx",
			"rotation":[
				0.70710688829422,
				0,
				0,
				0.7071066498756409
			],
			"translation":[
				1.52587890625e-05,
				-6.103515625e-05,
				0
			]
		},
		{
			"children":[
				6
			],
			"name":"Sketchfab_model.001",
			"rotation":[
				-0.4166805148124695,
				-0.5712944865226746,
				-0.5712945461273193,
				0.4166805148124695
			],
			"scale":[
				0.0008184699108824134,
				0.0008184699108824134,
				0.0008184699108824134
			],
			"translation":[
				0.6000000238418579,
				0,
				0.8999999761581421
			]
		},
		{
			"mesh":3,
			"name":"texture_v128_768.001"
		},
		{
			"mesh":4,
			"name":"Plane"
		},
		{
			"mesh":5,
			"name":"Cylinder.002",
			"translation":[
				-1.9583113193511963,
				0.7317401766777039,
				2
			]
		},
		{
			"mesh":6,
			"name":"Cylinder.004",
			"translation":[
				1.9416886568069458,
				0.7317401766777039,
				2
			]
		},
		{
			"mesh":7,
			"name":"Cylinder.005",
			"translation":[
				-1.9583113193511963,
				0.7317401766777039,
				-2
			]
		}
	],
	"materials":[
		{
			"doubleSided":true,
			"name":"Scene_-_Root",
			"pbrMetallicRoughness":{
				"metallicFactor":0,
				"roughnessFactor":0.6000000238418579
			}
		},
		{
			"doubleSided":true,
			"name":"Default_Material1",
			"normalTexture":{
				"index":0
			},
			"pbrMetallicRoughness":{
				"baseColorTexture":{
					"index":1
				},
				"metallicFactor":0,
				"metallicRoughnessTexture":{
					"index":2
				}
			}
		},
		{
			"doubleSided":true,
			"extensions":{
				"KHR_materials_specular":{
					"specularColorFactor":[
						2.0,
						2.0,
						2.0
					]
				}
			},
			"name":"Material.003",
			"normalTexture":{
				"index":3
			},
			"pbrMetallicRoughness":{
				"baseColorTexture":{
					"index":4
				},
				"metallicRoughnessTexture":{
					"index":5
				}
			}
		},
		{
			"doubleSided":true,
			"name":"Material.001",
			"pbrMetallicRoughness":{
				"baseColorFactor":[
					0.800000011920929,
					0.800000011920929,
					0.800000011920929,
					1
				],
				"metallicFactor":0,
				"roughnessFactor":0.5
			}
		},
		{
			"doubleSided":true,
			"name":"Default",
			"pbrMetallicRoughness":{
				"baseColorFactor":[
					0.7110592722892761,
					0.7110592722892761,
					0.7110592722892761,
					1
				],
				"metallicFactor":0,
				"roughnessFactor":0.5
			}
		},
		{
			"doubleSided":true,
			"name":"LightM",
			"pbrMetallicRoughness":{
				"baseColorFactor":[
					0,
					0,
					0,
					1
				],
				"metallicFactor":0,
				"roughnessFactor":0.5
			}
		},
		{
			"doubleSided":true,
			"name":"LightL",
			"pbrMetallicRoughness":{
				"baseColorFactor":[
					0,
					0,
					0,
					1
				],
				"metallicFactor":0,
				"roughnessFactor":0.5
			}
		},
		{
			"doubleSided":true,
			"name":"LightR",
			"pbrMetallicRoughness":{
				"baseColorFactor":[
					0,
					0,
					0,
					1
				],
				"metallicFactor":0,
				"roughnessFactor":0.5
			}
		}
	],
	"meshes":[
		{
			"name":"Object_0",
			"primitives":[
				{
					"attributes":{
						"POSITION":0,
						"NORMAL":1
					},
					"indices":2,
					"material":0
				}
			]
		},
		{
			"name":"Object_1",
			"primitives":[
				{
					"attributes":{
						"POSITION":3,
						"NORMAL":4
					},
					"indices":5,
					"material":0
				}
			]
		},
		{
			"name":"default-retopo 3_Default Material1_0",
			"primitives":[
				{
					"attributes":{
						"POSITION":6,
						"NORMAL":7,
						"TEXCOORD_0":8,
						"TEXCOORD_1":9,
						"TEXCOORD_2":10,
						"TEXCOORD_3":11
					},
					"indices":12,
					"material":1
				}
			]
		},
		{
			"name":"texture_v128_768",
			"primitives":[
				{
					"attributes":{
						"POSITION":13,
						"NORMAL":14,
						"TEXCOORD_0":15
					},
					"indices":16,
					"material":2
				}
			]
		},
		{
			"name":"Plane",
			"primitives":[
				{
					"attributes":{
						"POSITION":17,
						"NORMAL":18,
						"TEXCOORD_0":19
					},
					"indices":20,
					"material":3
				}
			]
		},
		{
			"name":"Cylinder.010",
			"primitives":[
				{
					"attributes":{
						"POSITION":21,
						"NORMAL":22,
						"TEXCOORD_0":23
					},
					"indices":24,
					"material":4
				},
				{
					"attributes":{
						"POSITION":25,
						"NORMAL":26,
						"TEXCOORD_0":27
					},
					"indices":28,
					"material":5
				}
			]
		},
		{
			"name":"Cylinder.011",
			"primitives":[
				{
					"attributes":{
						"POSITION":29,
						"NORMAL":30,
						"TEXCOORD_0":31
					},
					"indices":32,
					"material":4
				},
				{
					"attributes":{
						"POSITION":33,
						"NORMAL":34,
						"TEXCOORD_0":35
					},
					"indices":28,
					"material":6
				}
			]
		},
		{
			"name":"Cylinder.014",
			"primitives":[
				{
					"attributes":{
						"POSITION":36,
						"NORMAL":37,
						"TEXCOORD_0":38
					},
					"indices":39,
					"material":4
				},
				{
					"attributes":{
						"POSITION":40,
						"NORMAL":41,
						"TEXCOORD_0":42
					},
					"indices":28,
					"material":7
				}
			]
		}
	],
	"textures":[
		{
			"sampler":0,
			"source":0
		},
		{
			"sampler":0,
			"source":1
		},
		{
			"sampler":0,
			"source":2
		},
		{
			"sampler":0,
			"source":3
		},
		{
			"sampler":0,
			"source":4
		},
		{
			"sampler":0,
			"source":5
		}
	],
	"images":[
		{
			"mimeType":"image/png",
			"name":"Default_Material1_normal",
			"uri":"Default_Material1_normal.png"
		},
		{
			"mimeType":"image/png",
			"name":"Default_Material1_baseColor",
			"uri":"Default_Material1_baseColor.png"
		},
		{
			"mimeType":"image/png",
			"name":"Default_Material1_metallicRoughness",
			"uri":"Default_Material1_metallicRoughness.png"
		},
		{
			"mimeType":"image/png",
			"name":"texture_v128_768_normal",
			"uri":"texture_v128_768_normal.png"
		},
		{
			"mimeType":"image/png",
			"name":"texture_v128_768",
			"uri":"texture_v128_768.png"
		},
		{
			"mimeType":"image/png",
			"name":"texture_v128_768_metallic-texture_v128_768_roughness",
			"uri":"texture_v128_768_metallic-texture_v128_768_roughness.png"
		}
	],
	"accessors":[
		{
			"bufferView":0,
			"componentType":5126,
			"count":65560,
			"max":[
				-0.3196413516998291,
				1.816585898399353,
				1.7617883682250977
			],
			"min":[
				-1.0045400857925415,
				-0.03625226020812988,
				-0.0050067901611328125
			],
			"type":"VEC3"
		},
		{
			"bufferView":1,
			"componentType":5126,
			"count":65560,
			"type":"VEC3"
		},
		{
			"bufferView":2,
			"componentType":5125,
			"count":356364,
			"type":"SCALAR"
		},
		{
			"bufferView":3,
			"componentType":5126,
			"count":52201,
			"max":[
				-0.42627936601638794,
				1.7812926769256592,
				1.7597582340240479
			],
			"min":[
				-0.9217444658279419,
				-0.07187843322753906,
				0.6160042881965637
			],
			"type":"VEC3"
		},
		{
			"bufferView":4,
			"componentType":5126,
			"count":52201,
			"type":"VEC3"
		},
		{
			"bufferView":5,
			"componentType":5123,
			"count":269871,
			"type":"SCALAR"
		},
		{
			"bufferView":6,
			"componentType":5126,
			"count":3775,
			"max":[
				5.007768154144287,
				9.876745223999023,
				3.8788909912109375
			],
			"min":[
				-5.020270824432373,
				-0.043061401695013046,
				-3.900606155395508
			],
			"type":"VEC3"
		},
		{
			"bufferView":7,
			"componentType":5126,
			"count":3775,
			"type":"VEC3"
		},
		{
			"bufferView":8,
			"componentType":5126,
			"count":3775,
			"type":"VEC2"
		},
		{
			"bufferView":9,
			"componentType":5126,
			"count":3775,
			"type":"VEC2"
		},
		{
			"bufferView":10,
			"componentType":5126,
			"count":3775,
			"type":"VEC2"
		},
		{
			"bufferView":11,
			"componentType":5126,
			"count":3775,
			"type":"VEC2"
		},
		{
			"bufferView":12,
			"componentType":5123,
			"count":19770,
			"type":"SCALAR"
		},
		{
			"bufferView":13,
			"componentType":5126,
			"count":318809,
			"max":[
				0.4668462872505188,
				1.012168049812317,
				-0.08985230326652527
			],
			"min":[
				-0.07355575263500214,
				0.0003349184989929199,
				-0.7101490497589111
			],
			"type":"VEC3"
		},
		{
			"bufferView":14,
			"componentType":5126,
			"count":318809,
			"type":"VEC3"
		},
		{
			"bufferView":15,
			"componentType":5126,
			"count":318809,
			"type":"VEC2"
		},
		{
			"bufferView":16,
			"componentType":5125,
			"count":1500000,
			"type":"SCALAR"
		},
		{
			"bufferView":17,
			"componentType":5126,
			"count":12,
			"max":[
				3.080582618713379,
				5.000000476837158,
				3.080582618713379
			],
			"min":[
				-3.080582618713379,
				0,
				-3.080582618713379
			],
			"type":"VEC3"
		},
		{
			"bufferView":18,
			"componentType":5126,
			"count":12,
			"type":"VEC3"
		},
		{
			"bufferView":19,
			"componentType":5126,
			"count":12,
			"type":"VEC2"
		},
		{
			"bufferView":20,
			"componentType":5123,
			"count":18,
			"type":"SCALAR"
		},
		{
			"bufferView":21,
			"componentType":5126,
			"count":9832,
			"max":[
				0.9574986696243286,
				2.1144566535949707,
				0.48397475481033325
			],
			"min":[
				-0.4839746952056885,
				-0.7315309643745422,
				-0.9574979543685913
			],
			"type":"VEC3"
		},
		{
			"bufferView":22,
			"componentType":5126,
			"count":9832,
			"type":"VEC3"
		},
		{
			"bufferView":23,
			"componentType":5126,
			"count":9832,
			"type":"VEC2"
		},
		{
			"bufferView":24,
			"componentType":5123,
			"count":16314,
			"type":"SCALAR"
		},
		{
			"bufferView":25,
			"componentType":5126,
			"count":4,
			"max":[
				0.8718140721321106,
				2.013639450073242,
				0.32322245836257935
			],
			"min":[
				-0.32322245836257935,
				0.31454336643218994,
				-0.8718135356903076
			],
			"type":"VEC3"
		},
		{
			"bufferView":26,
			"componentType":5126,
			"count":4,
			"type":"VEC3"
		},
		{
			"bufferView":27,
			"componentType":5126,
			"count":4,
			"type":"VEC2"
		},
		{
			"bufferView":28,
			"componentType":5123,
			"count":6,
			"type":"SCALAR"
		},
		{
			"bufferView":29,
			"componentType":5126,
			"count":9832,
			"max":[
				0.48397475481033325,
				2.1144566535949707,
				0.4839746952056885
			],
			"min":[
				-0.9574979543685913,
				-0.7315309643745422,
				-0.9574986696243286
			],
			"type":"VEC3"
		},
		{
			"bufferView":30,
			"componentType":5126,
			"count":9832,
			"type":"VEC3"
		},
		{
			"bufferView":31,
			"componentType":5126,
			"count":9832,
			"type":"VEC2"
		},
		{
			"bufferView":32,
			"componentType":5123,
			"count":16314,
			"type":"SCALAR"
		},
		{
			"bufferView":33,
			"componentType":5126,
			"count":4,
			"max":[
				0.32322245836257935,
				2.013639450073242,
				0.32322245836257935
			],
			"min":[
				-0.8718135356903076,
				0.31454336643218994,
				-0.8718140721321106
			],
			"type":"VEC3"
		},
		{
			"bufferView":34,
			"componentType":5126,
			"count":4,
			"type":"VEC3"
		},
		{
			"bufferView":35,
			"componentType":5126,
			"count":4,
			"type":"VEC2"
		},
		{
			"bufferView":36,
			"componentType":5126,
			"count":9832,
			"max":[
				0.9574979543685913,
				2.1144566535949707,
				0.9574986696243286
			],
			"min":[
				-0.48397472500801086,
				-0.7315309643745422,
				-0.4839746654033661
			],
			"type":"VEC3"
		},
		{
			"bufferView":37,
			"componentType":5126,
			"count":9832,
			"type":"VEC3"
		},
		{
			"bufferView":38,
			"componentType":5126,
			"count":9832,
			"type":"VEC2"
		},
		{
			"bufferView":39,
			"componentType":5123,
			"count":16314,
			"type":"SCALAR"
		},
		{
			"bufferView":40,
			"componentType":5126,
			"count":4,
			"max":[
				0.8718134760856628,
				2.013639450073242,
				0.8718140721321106
			],
			"min":[
				-0.32322239875793457,
				0.31454336643218994,
				-0.3232225477695465
			],
			"type":"VEC3"
		},
		{
			"bufferView":41,
			"componentType":5126,
			"count":4,
			"type":"VEC3"
		},
		{
			"bufferView":42,
			"componentType":5126,
			"count":4,
			"type":"VEC2"
		}
	],
	"bufferViews":[
		{
			"buffer":0,
			"byteLength":786720,
			"byteOffset":0,
			"target":34962
		},
		{
			"buffer":0,
			"byteLength":786720,
			"byteOffset":786720,
			"target":34962
		},
		{
			"buffer":0,
			"byteLength":1425456,
			"byteOffset":1573440,
			"target":34963
		},
		{
			"buffer":0,
			"byteLength":626412,
			"byteOffset":2998896,
			"target":34962
		},
		{
			"buffer":0,
			"byteLength":626412,
			"byteOffset":3625308,
			"target":34962
		},
		{
			"buffer":0,
			"byteLength":539742,
			"byteOffset":4251720,
			"target":34963
		},
		{
			"buffer":0,
			"byteLength":45300,
			"byteOffset":4791464,
			"target":34962
		},
		{
			"buffer":0,
			"byteLength":45300,
			"byteOffset":4836764,
			"target":34962
		},
		{
			"buffer":0,
			"byteLength":30200,
			"byteOffset":4882064,
			"target":34962
		},
		{
			"buffer":0,
			"byteLength":30200,
			"byteOffset":4912264,
			"target":34962
		},
		{
			"buffer":0,
			"byteLength":30200,
			"byteOffset":4942464,
			"target":34962
		},
		{
			"buffer":0,
			"byteLength":30200,
			"byteOffset":4972664,
			"target":34962
		},
		{
			"buffer":0,
			"byteLength":39540,
			"byteOffset":5002864,
			"target":34963
		},
		{
			"buffer":0,
			"byteLength":3825708,
			"byteOffset":5042404,
			"target":34962
		},
		{
			"buffer":0,
			"byteLength":3825708,
			"byteOffset":8868112,
			"target":34962
		},
		{
			"buffer":0,
			"byteLength":2550472,
			"byteOffset":12693820,
			"target":34962
		},
		{
			"buffer":0,
			"byteLength":6000000,
			"byteOffset":15244292,
			"target":34963
		},
		{
			"buffer":0,
			"byteLength":144,
			"byteOffset":21244292,
			"target":34962
		},
		{
			"buffer":0,
			"byteLength":144,
			"byteOffset":21244436,
			"target":34962
		},
		{
			"buffer":0,
			"byteLength":96,
			"byteOffset":21244580,
			"target":34962
		},
		{
			"buffer":0,
			"byteLength":36,
			"byteOffset":21244676,
			"target":34963
		},
		{
			"buffer":0,
			"byteLength":117984,
			"byteOffset":21244712,
			"target":34962
		},
		{
			"buffer":0,
			"byteLength":117984,
			"byteOffset":21362696,
			"target":34962
		},
		{
			"buffer":0,
			"byteLength":78656,
			"byteOffset":21480680,
			"target":34962
		},
		{
			"buffer":0,
			"byteLength":32628,
			"byteOffset":21559336,
			"target":34963
		},
		{
			"buffer":0,
			"byteLength":48,
			"byteOffset":21591964,
			"target":34962
		},
		{
			"buffer":0,
			"byteLength":48,
			"byteOffset":21592012,
			"target":34962
		},
		{
			"buffer":0,
			"byteLength":32,
			"byteOffset":21592060,
			"target":34962
		},
		{
			"buffer":0,
			"byteLength":12,
			"byteOffset":21592092,
			"target":34963
		},
		{
			"buffer":0,
			"byteLength":117984,
			"byteOffset":21592104,
			"target":34962
		},
		{
			"buffer":0,
			"byteLength":117984,
			"byteOffset":21710088,
			"target":34962
		},
		{
			"buffer":0,
			"byteLength":78656,
			"byteOffset":21828072,
			"target":34962
		},
		{
			"buffer":0,
			"byteLength":32628,
			"byteOffset":21906728,
			"target":34963
		},
		{
			"buffer":0,
			"byteLength":48,
			"byteOffset":21939356,
			"target":34962
		},
		{
			"buffer":0,
			"byteLength":48,
			"byteOffset":21939404,
			"target":34962
		},
		{
			"buffer":0,
			"byteLength":32,
			"byteOffset":21939452,
			"target":34962
		},
		{
			"buffer":0,
			"byteLength":117984,
			"byteOffset":21939484,
			"target":34962
		},
		{
			"buffer":0,
			"byteLength":117984,
			"byteOffset":22057468,
			"target":34962
		},
		{
			"buffer":0,
			"byteLength":78656,
			"byteOffset":22175452,
			"target":34962
		},
		{
			"buffer":0,
			"byteLength":32628,
			"byteOffset":22254108,
			"target":34963
		},
		{
			"buffer":0,
			"byteLength":48,
			"byteOffset":22286736,
			"target":34962
		},
		{
			"buffer":0,
			"byteLength":48,
			"byteOffset":22286784,
			"target":34962
		},
		{
			"buffer":0,
			"byteLength":32,
			"byteOffset":22286832,
			"target":34962
		}
	],
	"samplers":[
		{
			"magFilter":9729,
			"minFilter":9987
		}
	],
	"buffers":[
		{
			"byteLength":22286864,
			"uri":"scene.bin"
		}
	]
}
