{
	"asset":{
		"generator":"Khronos glTF Blender I/O v4.2.70",
		"version":"2.0"
	},
	"extensionsUsed":[
		"KHR_materials_emissive_strength"
	],
	"scene":0,
	"scenes":[
		{
			"name":"Scene",
			"nodes":[
				0,
				1,
				2,
				3,
				4,
				5,
				6
			]
		}
	],
	"nodes":[
		{
			"mesh":0,
			"name":"Plane"
		},
		{
			"mesh":1,
			"name":"Cylinder.002",
			"translation":[
				-1.9583113193511963,
				0.7317401766777039,
				2
			]
		},
		{
			"mesh":2,
			"name":"Cylinder.004",
			"translation":[
				1.9416886568069458,
				0.7317401766777039,
				2
			]
		},
		{
			"mesh":3,
			"name":"Cylinder.005",
			"translation":[
				-1.9583113193511963,
				0.7317401766777039,
				-2
			]
		},
		{
			"mesh":4,
			"name":"Object_2",
			"rotation":[
				-0.687663197517395,
				-0.16468016803264618,
				-0.16468024253845215,
				0.6876628398895264
			],
			"translation":[
				-0.8573488593101501,
				0.005363104864954948,
				1.128266453742981
			]
		},
		{
			"mesh":5,
			"name":"Object_3",
			"rotation":[
				-0.687663197517395,
				-0.16468016803264618,
				-0.16468024253845215,
				0.6876628398895264
			],
			"translation":[
				-0.8573488593101501,
				0.005363104864954948,
				1.128266453742981
			]
		},
		{
			"mesh":6,
			"name":"default-retopo 3_Default Material1_0",
			"rotation":[
				0,
				-0.807932436466217,
				0,
				0.5892751812934875
			],
			"scale":[
				0.1385711431503296,
				0.13857115805149078,
				0.13857115805149078
			],
			"translation":[
				0.5900000333786011,
				-0.0015374706126749516,
				0.8999999761581421
			]
		}
	],
	"materials":[
		{
			"doubleSided":true,
			"name":"Material.001",
			"pbrMetallicRoughness":{
				"baseColorFactor":[
					0.800000011920929,
					0.800000011920929,
					0.800000011920929,
					1
				],
				"metallicFactor":0,
				"roughnessFactor":0.5
			}
		},
		{
			"doubleSided":true,
			"name":"Default",
			"pbrMetallicRoughness":{
				"baseColorFactor":[
					0.7110592722892761,
					0.7110592722892761,
					0.7110592722892761,
					1
				],
				"metallicFactor":0,
				"roughnessFactor":0.5
			}
		},
		{
			"doubleSided":true,
			"emissiveFactor":[
				0.34232378005981445,
				0.7688191533088684,
				1
			],
			"extensions":{
				"KHR_materials_emissive_strength":{
					"emissiveStrength":5
				}
			},
			"name":"LightM",
			"pbrMetallicRoughness":{
				"baseColorFactor":[
					0,
					0,
					0,
					1
				],
				"metallicFactor":0,
				"roughnessFactor":0.5
			}
		},
		{
			"doubleSided":true,
			"emissiveFactor":[
				1,
				0.280979722738266,
				0.09952463209629059
			],
			"extensions":{
				"KHR_materials_emissive_strength":{
					"emissiveStrength":5
				}
			},
			"name":"LightL",
			"pbrMetallicRoughness":{
				"baseColorFactor":[
					0,
					0,
					0,
					1
				],
				"metallicFactor":0,
				"roughnessFactor":0.5
			}
		},
		{
			"doubleSided":true,
			"emissiveFactor":[
				1,
				0.9281978607177734,
				0.4045681357383728
			],
			"extensions":{
				"KHR_materials_emissive_strength":{
					"emissiveStrength":5
				}
			},
			"name":"LightR",
			"pbrMetallicRoughness":{
				"baseColorFactor":[
					0,
					0,
					0,
					1
				],
				"metallicFactor":0,
				"roughnessFactor":0.5
			}
		},
		{
			"doubleSided":true,
			"name":"Scene_-_Root",
			"pbrMetallicRoughness":{
				"metallicFactor":0,
				"roughnessFactor":0.6000000238418579
			}
		},
		{
			"doubleSided":true,
			"name":"Default_Material1",
			"normalTexture":{
				"index":0
			},
			"pbrMetallicRoughness":{
				"baseColorTexture":{
					"index":1
				},
				"metallicFactor":0,
				"metallicRoughnessTexture":{
					"index":2
				}
			}
		}
	],
	"meshes":[
		{
			"name":"Plane",
			"primitives":[
				{
					"attributes":{
						"POSITION":0,
						"NORMAL":1,
						"TEXCOORD_0":2
					},
					"indices":3,
					"material":0
				}
			]
		},
		{
			"name":"Cylinder.010",
			"primitives":[
				{
					"attributes":{
						"POSITION":4,
						"NORMAL":5,
						"TEXCOORD_0":6
					},
					"indices":7,
					"material":1
				},
				{
					"attributes":{
						"POSITION":8,
						"NORMAL":9,
						"TEXCOORD_0":10
					},
					"indices":11,
					"material":2
				}
			]
		},
		{
			"name":"Cylinder.011",
			"primitives":[
				{
					"attributes":{
						"POSITION":12,
						"NORMAL":13,
						"TEXCOORD_0":14
					},
					"indices":15,
					"material":1
				},
				{
					"attributes":{
						"POSITION":16,
						"NORMAL":17,
						"TEXCOORD_0":18
					},
					"indices":11,
					"material":3
				}
			]
		},
		{
			"name":"Cylinder.014",
			"primitives":[
				{
					"attributes":{
						"POSITION":19,
						"NORMAL":20,
						"TEXCOORD_0":21
					},
					"indices":22,
					"material":1
				},
				{
					"attributes":{
						"POSITION":23,
						"NORMAL":24,
						"TEXCOORD_0":25
					},
					"indices":11,
					"material":4
				}
			]
		},
		{
			"name":"Object_0",
			"primitives":[
				{
					"attributes":{
						"POSITION":26,
						"NORMAL":27
					},
					"indices":28,
					"material":5
				}
			]
		},
		{
			"name":"Object_1",
			"primitives":[
				{
					"attributes":{
						"POSITION":29,
						"NORMAL":30
					},
					"indices":31,
					"material":5
				}
			]
		},
		{
			"name":"default-retopo 3_Default Material1_0",
			"primitives":[
				{
					"attributes":{
						"POSITION":32,
						"NORMAL":33,
						"TEXCOORD_0":34,
						"TEXCOORD_1":35,
						"TEXCOORD_2":36,
						"TEXCOORD_3":37
					},
					"indices":38,
					"material":6
				}
			]
		}
	],
	"textures":[
		{
			"sampler":0,
			"source":0
		},
		{
			"sampler":0,
			"source":1
		},
		{
			"sampler":0,
			"source":2
		}
	],
	"images":[
		{
			"mimeType":"image/png",
			"name":"Default_Material1_normal",
			"uri":"Default_Material1_normal.png"
		},
		{
			"mimeType":"image/png",
			"name":"Default_Material1_baseColor",
			"uri":"Default_Material1_baseColor.png"
		},
		{
			"mimeType":"image/png",
			"name":"Default_Material1_metallicRoughness",
			"uri":"Default_Material1_metallicRoughness.png"
		}
	],
	"accessors":[
		{
			"bufferView":0,
			"componentType":5126,
			"count":12,
			"max":[
				3.080582618713379,
				5.000000476837158,
				3.080582618713379
			],
			"min":[
				-3.080582618713379,
				0,
				-3.080582618713379
			],
			"type":"VEC3"
		},
		{
			"bufferView":1,
			"componentType":5126,
			"count":12,
			"type":"VEC3"
		},
		{
			"bufferView":2,
			"componentType":5126,
			"count":12,
			"type":"VEC2"
		},
		{
			"bufferView":3,
			"componentType":5123,
			"count":18,
			"type":"SCALAR"
		},
		{
			"bufferView":4,
			"componentType":5126,
			"count":9832,
			"max":[
				0.9574986696243286,
				2.1144566535949707,
				0.48397475481033325
			],
			"min":[
				-0.4839746952056885,
				-0.7315309643745422,
				-0.9574979543685913
			],
			"type":"VEC3"
		},
		{
			"bufferView":5,
			"componentType":5126,
			"count":9832,
			"type":"VEC3"
		},
		{
			"bufferView":6,
			"componentType":5126,
			"count":9832,
			"type":"VEC2"
		},
		{
			"bufferView":7,
			"componentType":5123,
			"count":16314,
			"type":"SCALAR"
		},
		{
			"bufferView":8,
			"componentType":5126,
			"count":4,
			"max":[
				0.8718140721321106,
				2.013639450073242,
				0.32322245836257935
			],
			"min":[
				-0.32322245836257935,
				0.31454336643218994,
				-0.8718135356903076
			],
			"type":"VEC3"
		},
		{
			"bufferView":9,
			"componentType":5126,
			"count":4,
			"type":"VEC3"
		},
		{
			"bufferView":10,
			"componentType":5126,
			"count":4,
			"type":"VEC2"
		},
		{
			"bufferView":11,
			"componentType":5123,
			"count":6,
			"type":"SCALAR"
		},
		{
			"bufferView":12,
			"componentType":5126,
			"count":9832,
			"max":[
				0.48397475481033325,
				2.1144566535949707,
				0.4839746952056885
			],
			"min":[
				-0.9574979543685913,
				-0.7315309643745422,
				-0.9574986696243286
			],
			"type":"VEC3"
		},
		{
			"bufferView":13,
			"componentType":5126,
			"count":9832,
			"type":"VEC3"
		},
		{
			"bufferView":14,
			"componentType":5126,
			"count":9832,
			"type":"VEC2"
		},
		{
			"bufferView":15,
			"componentType":5123,
			"count":16314,
			"type":"SCALAR"
		},
		{
			"bufferView":16,
			"componentType":5126,
			"count":4,
			"max":[
				0.32322245836257935,
				2.013639450073242,
				0.32322245836257935
			],
			"min":[
				-0.8718135356903076,
				0.31454336643218994,
				-0.8718140721321106
			],
			"type":"VEC3"
		},
		{
			"bufferView":17,
			"componentType":5126,
			"count":4,
			"type":"VEC3"
		},
		{
			"bufferView":18,
			"componentType":5126,
			"count":4,
			"type":"VEC2"
		},
		{
			"bufferView":19,
			"componentType":5126,
			"count":9832,
			"max":[
				0.9574979543685913,
				2.1144566535949707,
				0.9574986696243286
			],
			"min":[
				-0.48397472500801086,
				-0.7315309643745422,
				-0.4839746654033661
			],
			"type":"VEC3"
		},
		{
			"bufferView":20,
			"componentType":5126,
			"count":9832,
			"type":"VEC3"
		},
		{
			"bufferView":21,
			"componentType":5126,
			"count":9832,
			"type":"VEC2"
		},
		{
			"bufferView":22,
			"componentType":5123,
			"count":16314,
			"type":"SCALAR"
		},
		{
			"bufferView":23,
			"componentType":5126,
			"count":4,
			"max":[
				0.8718134760856628,
				2.013639450073242,
				0.8718140721321106
			],
			"min":[
				-0.32322239875793457,
				0.31454336643218994,
				-0.3232225477695465
			],
			"type":"VEC3"
		},
		{
			"bufferView":24,
			"componentType":5126,
			"count":4,
			"type":"VEC3"
		},
		{
			"bufferView":25,
			"componentType":5126,
			"count":4,
			"type":"VEC2"
		},
		{
			"bufferView":26,
			"componentType":5126,
			"count":65560,
			"max":[
				-0.3196413516998291,
				1.816585898399353,
				1.7617883682250977
			],
			"min":[
				-1.0045400857925415,
				-0.03625226020812988,
				-0.0050067901611328125
			],
			"type":"VEC3"
		},
		{
			"bufferView":27,
			"componentType":5126,
			"count":65560,
			"type":"VEC3"
		},
		{
			"bufferView":28,
			"componentType":5125,
			"count":356364,
			"type":"SCALAR"
		},
		{
			"bufferView":29,
			"componentType":5126,
			"count":52201,
			"max":[
				-0.42627936601638794,
				1.7812926769256592,
				1.7597582340240479
			],
			"min":[
				-0.9217444658279419,
				-0.07187843322753906,
				0.6160042881965637
			],
			"type":"VEC3"
		},
		{
			"bufferView":30,
			"componentType":5126,
			"count":52201,
			"type":"VEC3"
		},
		{
			"bufferView":31,
			"componentType":5123,
			"count":269871,
			"type":"SCALAR"
		},
		{
			"bufferView":32,
			"componentType":5126,
			"count":3775,
			"max":[
				5.007768154144287,
				9.876745223999023,
				3.8788909912109375
			],
			"min":[
				-5.020270824432373,
				-0.043061401695013046,
				-3.900606155395508
			],
			"type":"VEC3"
		},
		{
			"bufferView":33,
			"componentType":5126,
			"count":3775,
			"type":"VEC3"
		},
		{
			"bufferView":34,
			"componentType":5126,
			"count":3775,
			"type":"VEC2"
		},
		{
			"bufferView":35,
			"componentType":5126,
			"count":3775,
			"type":"VEC2"
		},
		{
			"bufferView":36,
			"componentType":5126,
			"count":3775,
			"type":"VEC2"
		},
		{
			"bufferView":37,
			"componentType":5126,
			"count":3775,
			"type":"VEC2"
		},
		{
			"bufferView":38,
			"componentType":5123,
			"count":19770,
			"type":"SCALAR"
		}
	],
	"bufferViews":[
		{
			"buffer":0,
			"byteLength":144,
			"byteOffset":0,
			"target":34962
		},
		{
			"buffer":0,
			"byteLength":144,
			"byteOffset":144,
			"target":34962
		},
		{
			"buffer":0,
			"byteLength":96,
			"byteOffset":288,
			"target":34962
		},
		{
			"buffer":0,
			"byteLength":36,
			"byteOffset":384,
			"target":34963
		},
		{
			"buffer":0,
			"byteLength":117984,
			"byteOffset":420,
			"target":34962
		},
		{
			"buffer":0,
			"byteLength":117984,
			"byteOffset":118404,
			"target":34962
		},
		{
			"buffer":0,
			"byteLength":78656,
			"byteOffset":236388,
			"target":34962
		},
		{
			"buffer":0,
			"byteLength":32628,
			"byteOffset":315044,
			"target":34963
		},
		{
			"buffer":0,
			"byteLength":48,
			"byteOffset":347672,
			"target":34962
		},
		{
			"buffer":0,
			"byteLength":48,
			"byteOffset":347720,
			"target":34962
		},
		{
			"buffer":0,
			"byteLength":32,
			"byteOffset":347768,
			"target":34962
		},
		{
			"buffer":0,
			"byteLength":12,
			"byteOffset":347800,
			"target":34963
		},
		{
			"buffer":0,
			"byteLength":117984,
			"byteOffset":347812,
			"target":34962
		},
		{
			"buffer":0,
			"byteLength":117984,
			"byteOffset":465796,
			"target":34962
		},
		{
			"buffer":0,
			"byteLength":78656,
			"byteOffset":583780,
			"target":34962
		},
		{
			"buffer":0,
			"byteLength":32628,
			"byteOffset":662436,
			"target":34963
		},
		{
			"buffer":0,
			"byteLength":48,
			"byteOffset":695064,
			"target":34962
		},
		{
			"buffer":0,
			"byteLength":48,
			"byteOffset":695112,
			"target":34962
		},
		{
			"buffer":0,
			"byteLength":32,
			"byteOffset":695160,
			"target":34962
		},
		{
			"buffer":0,
			"byteLength":117984,
			"byteOffset":695192,
			"target":34962
		},
		{
			"buffer":0,
			"byteLength":117984,
			"byteOffset":813176,
			"target":34962
		},
		{
			"buffer":0,
			"byteLength":78656,
			"byteOffset":931160,
			"target":34962
		},
		{
			"buffer":0,
			"byteLength":32628,
			"byteOffset":1009816,
			"target":34963
		},
		{
			"buffer":0,
			"byteLength":48,
			"byteOffset":1042444,
			"target":34962
		},
		{
			"buffer":0,
			"byteLength":48,
			"byteOffset":1042492,
			"target":34962
		},
		{
			"buffer":0,
			"byteLength":32,
			"byteOffset":1042540,
			"target":34962
		},
		{
			"buffer":0,
			"byteLength":786720,
			"byteOffset":1042572,
			"target":34962
		},
		{
			"buffer":0,
			"byteLength":786720,
			"byteOffset":1829292,
			"target":34962
		},
		{
			"buffer":0,
			"byteLength":1425456,
			"byteOffset":2616012,
			"target":34963
		},
		{
			"buffer":0,
			"byteLength":626412,
			"byteOffset":4041468,
			"target":34962
		},
		{
			"buffer":0,
			"byteLength":626412,
			"byteOffset":4667880,
			"target":34962
		},
		{
			"buffer":0,
			"byteLength":539742,
			"byteOffset":5294292,
			"target":34963
		},
		{
			"buffer":0,
			"byteLength":45300,
			"byteOffset":5834036,
			"target":34962
		},
		{
			"buffer":0,
			"byteLength":45300,
			"byteOffset":5879336,
			"target":34962
		},
		{
			"buffer":0,
			"byteLength":30200,
			"byteOffset":5924636,
			"target":34962
		},
		{
			"buffer":0,
			"byteLength":30200,
			"byteOffset":5954836,
			"target":34962
		},
		{
			"buffer":0,
			"byteLength":30200,
			"byteOffset":5985036,
			"target":34962
		},
		{
			"buffer":0,
			"byteLength":30200,
			"byteOffset":6015236,
			"target":34962
		},
		{
			"buffer":0,
			"byteLength":39540,
			"byteOffset":6045436,
			"target":34963
		}
	],
	"samplers":[
		{
			"magFilter":9729,
			"minFilter":9987
		}
	],
	"buffers":[
		{
			"byteLength":6084976,
			"uri":"scene.bin"
		}
	]
}
